Coordinates
version=1
nRows=14
nColumns=36
inDegrees=yes

Units are S.I. units (second, meters, Newtons, ...)
If the header above contains a line with 'inDegrees', this indicates whether rotational values are in degrees (yes) or radians (no).

endheader
time	pelvis_tilt	pelvis_list	pelvis_rotation	pelvis_tx	pelvis_ty	pelvis_tz	hip_flexion_r	hip_adduction_r	hip_rotation_r	knee_angle_r	knee_angle_r_beta	ankle_angle_r	subtalar_angle_r	mtp_angle_r	hip_flexion_l	hip_adduction_l	hip_rotation_l	knee_angle_l	knee_angle_l_beta	ankle_angle_l	subtalar_angle_l	mtp_angle_l	lumbar_extension	lumbar_bending	lumbar_rotation	arm_flex_r	arm_add_r	arm_rot_r	elbow_flex_r	pro_sup_r	arm_flex_l	arm_add_l	arm_rot_l	elbow_flex_l	pro_sup_l
      6.55000000	    -36.61323751	      0.24306065	      0.95117636	     -0.38586007	      0.59642389	      0.12234834	    105.86325448	     -6.14143625	      3.79094697	     85.20950401	      1.48718640	     19.35398861	    -12.07159650	     -7.49999987	    106.19095790	    -11.70502240	      6.82114550	     85.47080891	      1.49174703	     16.83167803	     -1.38593260	     -7.49999987	    -32.25986123	     -1.50903466	      1.47812954	     81.23277706	      0.80279746	     76.09280042	    126.27501516	     94.62029900	     76.70240624	     -6.71449221	     61.42283466	    131.53004091	     95.72554329
      6.56666670	    -36.39045441	      0.10926792	      1.06079011	     -0.38301347	      0.59796127	      0.12279839	    105.40146399	     -6.38307582	      3.53944413	     85.25250199	      1.48793686	     19.52109080	    -11.90669430	     -7.49999987	    105.68606267	    -11.65148901	      6.84692150	     85.46241324	      1.49160050	     17.02542749	     -1.37782249	     -7.49999987	    -32.18405414	     -1.29579190	      1.44012875	     80.82837831	      0.60994055	     76.33146701	    126.79721401	     94.01854679	     76.02700247	     -6.84092259	     61.83705516	    131.91407045	     95.17529584
      6.58333330	    -36.14873311	     -0.09108134	      1.30565520	     -0.38008313	      0.59877369	      0.12202264	    104.98347172	     -6.78598350	      3.25545856	     85.32645319	      1.48922755	     19.49038356	    -11.97376895	     -7.49999987	    105.25659231	    -11.49392726	      6.88547781	     85.38600937	      1.49026700	     17.10352861	     -1.21427239	     -7.49999987	    -31.99093487	     -0.99014765	      1.27700330	     80.36198181	      0.43114821	     76.50750201	    127.22915588	     93.48392973	     75.32386267	     -6.79272460	     62.25640929	    132.19252095	     94.72944154
      6.60000000	    -35.84448029	     -0.28265887	      1.54134129	     -0.37788814	      0.59989613	      0.12277490	    104.51982469	     -7.12957556	      3.04013183	     85.53064080	      1.49279129	     19.58954660	    -11.92967504	     -7.49999987	    104.77127729	    -11.45247663	      6.82769573	     85.28935767	      1.48858011	     17.13770370	     -1.19502943	     -7.49999987	    -31.68136424	     -0.80004235	      1.18998226	     79.89577729	      0.34781204	     76.65368489	    127.44160017	     92.88165848	     74.56300980	     -6.68219516	     62.63377770	    132.34594564	     94.20232840
      6.61666670	    -35.58210335	     -0.40288161	      1.68549397	     -0.37322939	      0.60178639	      0.11997513	    103.90071181	     -7.44782317	      2.95468184	     85.76996342	      1.49696826	     20.49255557	    -10.98664466	     -7.49999987	    104.17891846	    -11.41147090	      6.64384754	     85.32380495	      1.48918133	     17.67510841	     -0.90602897	     -7.49999987	    -31.16018812	     -0.57209084	      1.13534697	     79.42361641	      0.24180587	     77.20623189	    127.73340087	     92.33890863	     73.76236120	     -6.47208752	     62.94455917	    132.45410576	     93.82197720
      6.63333330	    -35.45303424	     -0.38123227	      1.62905328	     -0.36922029	      0.60733967	      0.11818454	    103.08895390	     -7.59059308	      2.95162890	     85.57700212	      1.49360045	     20.53152968	    -10.59295345	     -7.49999987	    103.37103746	    -11.47603020	      6.36743119	     84.98464245	      1.48326182	     17.64619970	     -1.24910678	     -7.49999987	    -30.51214343	     -0.50309393	      1.05503895	     78.56054922	      0.15656973	     77.57774311	    128.01780710	     90.17996919	     72.45030645	     -6.34117814	     63.04447949	    132.71071845	     91.64782470
      6.65000000	    -35.41053382	     -0.30943857	      1.63767113	     -0.36446162	      0.61023658	      0.11815927	    102.37069124	     -7.86543753	      2.77529090	     85.17163797	      1.48652551	     20.63203072	    -10.45765716	     -7.49999987	    102.54665012	    -11.53943300	      6.03441528	     84.50641923	      1.47491525	     17.96123275	     -1.11598039	     -7.49999987	    -29.61598900	     -0.42950044	      0.87922571	     77.82510034	      0.29189872	     77.69218822	    127.94045788	     96.54649286	     71.01141243	     -6.19628995	     62.76203194	    132.90574171	     98.63668666
      6.66666670	    -35.45115213	     -0.18957243	      1.67367272	     -0.36182071	      0.61706038	      0.11653382	    101.49676913	     -8.01616435	      2.79964454	     84.37559642	      1.47263197	     20.27251267	    -10.33218137	     -7.49999987	    101.65137634	    -11.52585070	      5.59008005	     83.77571917	      1.46216213	     17.64271805	     -1.58667745	     -7.49999987	    -28.68955630	     -0.39857372	      0.80127231	     77.07832004	      0.23156091	     77.69405191	    127.98338012	     94.36614737	     69.67126758	     -6.07250785	     62.85447432	    133.22620403	     96.66910439
      6.68333330	    -35.25126309	     -0.28334420	      1.91673658	     -0.35419659	      0.62190568	      0.11710220	    100.24844879	     -8.28356643	      2.59632346	     83.75263774	      1.46175929	     20.42738341	    -10.26394517	     -7.49999987	    100.44897992	    -11.53001946	      5.26024670	     82.95670294	      1.44786760	     17.64977087	     -1.53029190	     -7.49999987	    -27.82165883	     -0.16057618	      0.68262184	     75.81413242	      0.14669822	     78.07725399	    128.04351711	     94.50865835	     68.23549637	     -5.90272899	     63.18843875	    133.33194497	     96.79660695
      6.70000000	    -35.47484505	     -0.28340498	      2.24574249	     -0.35142357	      0.62879481	      0.11548696	     99.38096495	     -8.61346006	      2.61421286	     82.90372506	      1.44694296	     20.72170999	     -9.65780440	     -7.49999987	     99.49579759	    -11.31991163	      4.73975123	     81.80023087	      1.42768336	     17.58804385	     -1.35200289	     -7.49999987	    -26.41366595	      0.11351024	      0.46609400	     74.49636938	      0.11432973	     78.24700261	    127.95555316	     94.04326869	     66.54187094	     -5.68720425	     63.06537873	    133.46396716	     96.48208376
      6.71666670	    -35.13033069	     -0.11971161	      2.31708033	     -0.34807927	      0.64098860	      0.11237428	     97.91197347	     -8.79029977	      2.61770025	     81.67553221	      1.42550696	     20.39662554	     -9.11431964	     -7.49999987	     97.67688682	    -11.15507755	      4.08327446	     80.32353477	      1.40191015	     17.08613845	     -1.75514610	     -7.49999987	    -25.79025836	      0.15432352	      0.42884593	     73.29086570	     -0.14360092	     77.75894682	    127.99731479	     97.56448294	     65.18464846	     -5.38146654	     63.20560052	    133.38042065	     99.77188818
      6.73333330	    -34.86740939	     -0.01997870	      2.20038370	     -0.34800983	      0.65017246	      0.11287131	     96.37712141	     -8.79688171	      2.48055863	     80.21125168	      1.39995044	     20.05845656	     -8.63051516	     -7.49999987	     95.97996313	    -11.15834322	      3.59578052	     78.78597681	      1.37507470	     17.06442751	     -1.92838378	     -7.49999987	    -25.05536389	      0.19442573	      0.44308741	     72.51518125	     -0.13084145	     77.70702079	    127.97728734	     97.55162127	     64.00328621	     -5.20174324	     63.72741481	    133.55741564	     99.79680819
      6.75000000	    -34.40440352	      0.07585126	      2.23979576	     -0.34608450	      0.65865140	      0.11384631	     94.91335035	     -8.82516464	      2.45172580	     78.79623844	      1.37525380	     19.62162957	     -8.39098781	     -7.49999987	     94.11644370	    -11.06589225	      3.13376721	     77.21363038	      1.34763208	     16.74887966	     -2.23913495	     -7.49999987	    -24.45790538	      0.24831929	      0.38111499	     71.56400220	     -0.00186721	     76.97581357	    127.43148290	     96.63874497	     63.16923913	     -5.11848166	     63.57346581	    133.54373882	     99.09169378
      6.76666670	    -33.98995416	      0.16900358	      2.24198717	     -0.33166744	      0.66661168	      0.11227696	     93.02025234	     -8.87113446	      2.34309391	     77.54101857	      1.35334608	     19.69902676	     -8.03234537	     -7.49999987	     92.00408620	    -11.11433304	      2.63071827	     75.58513506	      1.31920947	     16.67872194	     -2.22284632	     -7.49999987	    -23.44088482	      0.25894539	      0.23400323	     69.67495878	      0.11588821	     77.46857471	    127.62081893	     96.70615995	     61.60017077	     -5.15460766	     64.38839396	    133.74991410	     99.15758646
